<svg xmlns="http://www.w3.org/2000/svg" width="512" height="512" style=""><rect id="backgroundrect" width="100%" height="100%" x="0" y="0" fill="none" stroke="none"/><g class="currentLayer" style=""><title>Layer 1</title><path d="M135.9636993408203,308.68919372558594 C101.35843658447266,308.68919372558594 76.05345153808594,268.5062713623047 76.05345153808594,238.77854919433594 c0,-19.886905670166016 11.246659278869629,-40.79866409301758 34.82106018066406,-40.79866409301758 c34.60526657104492,0 59.91025161743164,40.388160705566406 59.91025161743164,70.11589050292969 c0,19.886905670166016 -11.030160903930664,40.59341049194336 -34.82106018066406,40.59341049194336 zm244.61483764648438,74.62650299072266 c0,26.03742218017578 -22.493318557739258,30.13753318786621 -44.554344177246094,30.13753318786621 c-28.981937408447266,0 -52.340545654296875,-18.451549530029297 -80.02420043945312,-18.451549530029297 c-28.981937408447266,0 -53.63813018798828,18.246299743652344 -84.99873352050781,18.246299743652344 c-20.97994041442871,0 -39.579803466796875,-6.765568256378174 -39.579803466796875,-29.932281494140625 C131.42144775390625,334.7266082763672 203.0113525390625,262.56031799316406 256,262.56031799316406 s124.57854461669922,72.37155151367188 124.57854461669922,120.75538635253906 zM204.30894470214844,219.30215454101562 c-35.038265228271484,0 -56.23329544067383,-41.82351303100586 -56.23329544067383,-70.52568817138672 C148.07565307617188,125.81429290771484 160.61990356445312,98.54676818847656 188.52005004882812,98.54676818847656 c35.254058837890625,0 56.23329544067383,41.82351303100586 56.23329544067383,70.52568817138672 c0,22.9621639251709 -12.544242858886719,50.22969055175781 -40.444393157958984,50.22969055175781 zM267.24664306640625,169.07245635986328 C267.24664306640625,140.3702850341797 288.22589111328125,98.54676818847656 323.4799499511719,98.54676818847656 c27.900150299072266,0 40.44509506225586,27.26752471923828 40.44509506225586,50.22898483276367 c0,28.702177047729492 -21.19573402404785,70.52568817138672 -56.2339973449707,70.52568817138672 C279.7908935546875,219.30215454101562 267.24664306640625,192.0346221923828 267.24664306640625,169.07245635986328 zM435.946533203125,238.77854919433594 c0,29.727731704711914 -25.304983139038086,69.91063690185547 -59.91025161743164,69.91063690185547 c-23.79160499572754,0 -34.82106018066406,-20.706504821777344 -34.82106018066406,-40.59341049194336 c0,-29.72702980041504 25.30428123474121,-70.11589050292969 59.91025161743164,-70.11589050292969 C424.69989013671875,197.97988891601562 435.946533203125,218.8916473388672 435.946533203125,238.77854919433594 z" id="svg_1" class="" fill="#ffffff" fill-opacity="1"/></g></svg>